<svg xmlns="http://www.w3.org/2000/svg" aria-hidden="true" style="position:absolute;width:0;height:0;overflow:hidden">
  <defs>
    <symbol id="linkedin" viewBox="0 0 32 32">
      <path fill="#f4f4fd" d="M30.583 30.584v-.001h.008V19.537c0-5.404-1.163-9.566-7.48-9.566-3.037 0-5.075 1.667-5.907 3.246h-.088v-2.742h-5.99v20.107h6.237v-9.956c0-2.622.497-5.156 3.743-5.156 3.199 0 3.246 2.992 3.246 5.325v9.79h6.231zM.97 10.477h6.244v20.107H.97V10.477zM4.09.467C2.093.467.473 2.087.473 4.084s1.62 3.651 3.617 3.651c1.997 0 3.617-1.654 3.617-3.651A3.62 3.62 0 0 0 4.09.467z" style="fill:var(--color1, #f4f4fd)"/>
    </symbol>
    <symbol id="facebook" viewBox="0 0 32 32">
      <path fill="#f4f4fd" d="M20.547 5.467h2.75V.678c-.474-.065-2.106-.212-4.006-.212-3.964 0-6.68 2.494-6.68 7.076v4.218H8.236v5.353h4.375v13.47h5.363V17.114h4.198l.666-5.353h-4.865V8.073c.001-1.547.418-2.606 2.574-2.606z" style="fill:var(--color1, #f4f4fd)"/>
    </symbol>
    <symbol id="twitter" viewBox="0 0 32 32">
      <path fill="#f4f4fd" d="M30.59 6.187c-1.12.491-2.313.817-3.558.975a6.136 6.136 0 0 0 2.716-3.413 12.338 12.338 0 0 1-3.915 1.495 6.173 6.173 0 0 0-10.68 4.222c0 .489.041.96.143 1.408-5.133-.25-9.675-2.711-12.727-6.458a6.212 6.212 0 0 0-.845 3.121 6.182 6.182 0 0 0 2.743 5.131 6.11 6.11 0 0 1-2.79-.76v.068c0 3 2.14 5.493 4.947 6.067a6.18 6.18 0 0 1-1.619.203c-.395 0-.794-.023-1.169-.105.8 2.445 3.07 4.243 5.769 4.301a12.409 12.409 0 0 1-7.656 2.633c-.506 0-.992-.023-1.478-.085a17.38 17.38 0 0 0 9.472 2.771c11.362 0 17.574-9.412 17.574-17.57 0-.273-.009-.536-.023-.798a12.338 12.338 0 0 0 3.095-3.206z" style="fill:var(--color1, #f4f4fd)"/>
    </symbol>
    <symbol id="instagram" viewBox="0 0 32 32">
      <path fill="#f4f4fd" d="M30.561 9.321c-.071-1.6-.329-2.7-.7-3.654a7.341 7.341 0 0 0-1.742-2.671 7.418 7.418 0 0 0-2.665-1.736C24.495.889 23.401.631 21.8.56 20.188.483 19.676.466 15.587.466S10.986.484 9.38.554c-1.6.071-2.7.33-3.654.7a7.341 7.341 0 0 0-2.671 1.742 7.418 7.418 0 0 0-1.736 2.665C.948 6.62.69 7.714.619 9.315c-.077 1.612-.094 2.124-.094 6.213s.018 4.601.088 6.207c.071 1.6.33 2.7.7 3.654a7.43 7.43 0 0 0 1.741 2.671 7.418 7.418 0 0 0 2.665 1.736c.959.371 2.053.629 3.654.7 1.606.071 2.118.088 6.207.088s4.601-.017 6.207-.088c1.6-.071 2.7-.329 3.653-.7a7.704 7.704 0 0 0 4.407-4.407c.37-.959.629-2.054.7-3.654.071-1.606.088-2.118.088-6.207s-.006-4.601-.077-6.207zm-2.712 12.297c-.065 1.471-.312 2.265-.518 2.795a4.994 4.994 0 0 1-2.859 2.859c-.529.206-1.329.453-2.795.517-1.589.071-2.065.088-6.084.088s-4.501-.017-6.084-.088c-1.471-.065-2.265-.312-2.795-.517a4.638 4.638 0 0 1-1.73-1.124 4.678 4.678 0 0 1-1.124-1.73c-.206-.529-.453-1.33-.518-2.795-.071-1.589-.088-2.065-.088-6.084s.017-4.501.088-6.083c.065-1.471.312-2.265.518-2.795a4.58 4.58 0 0 1 1.13-1.73 4.67 4.67 0 0 1 1.73-1.124c.529-.206 1.33-.453 2.795-.518 1.589-.071 2.065-.088 6.083-.088 4.024 0 4.501.018 6.084.088 1.471.065 2.265.312 2.795.518a4.625 4.625 0 0 1 1.73 1.124 4.69 4.69 0 0 1 1.124 1.73c.206.529.453 1.33.518 2.795.071 1.589.088 2.065.088 6.083s-.018 4.489-.088 6.078z" style="fill:var(--color1, #f4f4fd)"/>
      <path fill="#f4f4fd" d="M15.588 7.792c-4.271 0-7.737 3.465-7.737 7.737s3.466 7.737 7.737 7.737 7.737-3.465 7.737-7.737-3.465-7.737-7.737-7.737zm0 12.755a5.02 5.02 0 1 1 .001-10.04 5.02 5.02 0 0 1-.001 10.04zM25.437 7.486a1.807 1.807 0 1 1-3.613-.001 1.807 1.807 0 0 1 3.613.001z" style="fill:var(--color1, #f4f4fd)"/>
    </symbol>
  </defs>
</svg>
